<?xml version="1.0" encoding="utf-8"?>
<!-- Generator: Adobe Illustrator 16.0.0, SVG Export Plug-In . SVG Version: 6.00 Build 0)  -->
<!DOCTYPE svg PUBLIC "-//W3C//DTD SVG 1.1//EN" "http://www.w3.org/Graphics/SVG/1.1/DTD/svg11.dtd">
<svg version="1.1" id="Layer_1" xmlns="http://www.w3.org/2000/svg" xmlns:xlink="http://www.w3.org/1999/xlink" x="0px" y="0px"
	 width="841.89px" height="595.28px" viewBox="0 0 841.89 595.28" enable-background="new 0 0 841.89 595.28" xml:space="preserve">
<polygon fill="#ED1C24" points="63.78,379.089 122.649,379.089 367.802,379.089 723.593,379.089 773.48,227.179 113.668,227.179 "/>
<text transform="matrix(1 0 0 1 278.8652 329.0215)" fill="#FFFFFF" font-family="'Roboto-Medium'" font-size="76.9148">Click &amp; Drive</text>
<rect x="284.058" y="353.835" fill="#FFFFFF" width="428.336" height="1.636"/>
<polygon fill="#ED1C24" points="776.672,217.462 304.87,217.462 122.649,217.462 116.859,217.462 114.676,224.11 774.489,224.11 "/>
<g>
	<g>
		<g>
			<path fill="#FFFFFF" d="M204.62,294.592c-3.654,0-6.626,2.972-6.626,6.625s2.972,6.624,6.626,6.624
				c3.652,0,6.624-2.971,6.624-6.624S208.272,294.592,204.62,294.592z"/>
		</g>
	</g>
	<g>
		<g>
			<path fill="#FFFFFF" d="M209.007,274.509v11.947c3.402,1.014,6.314,3.171,8.289,6.027l11.363-3.691
				C224.793,281.345,217.569,275.912,209.007,274.509z"/>
		</g>
	</g>
	<g>
		<g>
			<path fill="#FFFFFF" d="M231.376,297.137l-11.366,3.693c0.003,0.129,0.01,0.258,0.01,0.387c0,3.517-1.188,6.761-3.18,9.356
				l7.018,9.659c4.834-4.892,7.826-11.611,7.826-19.016C231.684,299.83,231.579,298.467,231.376,297.137z"/>
		</g>
	</g>
	<g>
		<g>
			<path fill="#FFFFFF" d="M204.62,243.444h-53.384c-2.423,0-4.388,1.964-4.388,4.389c0,2.424,1.965,4.388,4.388,4.388h22.809
				c-4.813,3.014-9.151,6.715-12.877,10.967h-29.824c-2.424,0-4.389,1.965-4.389,4.391c0,2.422,1.965,4.387,4.389,4.387h23.476
				c-5.063,8.585-7.972,18.584-7.972,29.252c0,12.412,3.935,23.922,10.623,33.35h-12.449c-2.424,0-4.389,1.965-4.389,4.39
				c0,2.423,1.965,4.387,4.389,4.387h20.108c2.736,2.566,5.721,4.869,8.915,6.869h-42.25c-2.424,0-4.387,1.963-4.387,4.389
				c0,2.422,1.963,4.387,4.387,4.387h72.825c31.855,0,57.771-25.915,57.771-57.771C262.39,269.36,236.475,243.444,204.62,243.444z
				 M225.934,330.012c-0.081,0.071-0.161,0.138-0.248,0.201c-0.098,0.071-0.198,0.138-0.299,0.198
				c-5.863,4.184-13.033,6.645-20.767,6.645c-7.735,0-14.905-2.461-20.768-6.645c-0.103-0.061-0.202-0.127-0.3-0.198
				c-0.087-0.063-0.167-0.134-0.247-0.201c-8.808-6.535-14.527-17.008-14.527-28.795c0-19.764,16.077-35.841,35.841-35.841
				c19.762,0,35.84,16.077,35.84,35.841C240.459,313.004,234.741,323.477,225.934,330.012z"/>
		</g>
	</g>
	<g>
		<g>
			<path fill="#FFFFFF" d="M180.58,288.791l11.362,3.692c1.975-2.856,4.886-5.014,8.289-6.027v-11.947
				C191.668,275.912,184.444,281.345,180.58,288.791z"/>
		</g>
	</g>
	<g>
		<g>
			<path fill="#FFFFFF" d="M209.745,315.737c-1.604,0.568-3.329,0.881-5.125,0.881c-1.797,0-3.522-0.313-5.127-0.881l-7.019,9.661
				c3.654,1.843,7.78,2.884,12.146,2.884c4.364,0,8.49-1.041,12.145-2.884L209.745,315.737z"/>
		</g>
	</g>
	<g>
		<g>
			<path fill="#FFFFFF" d="M189.218,301.217c0-0.129,0.007-0.258,0.01-0.387l-11.367-3.693c-0.203,1.33-0.308,2.693-0.308,4.08
				c0,7.404,2.991,14.125,7.826,19.016l7.018-9.659C190.406,307.978,189.218,304.733,189.218,301.217z"/>
		</g>
	</g>
</g>
</svg>
