<?xml version="1.0" encoding="utf-8"?>
<!-- Generator: Adobe Illustrator 16.0.0, SVG Export Plug-In . SVG Version: 6.00 Build 0)  -->
<!DOCTYPE svg PUBLIC "-//W3C//DTD SVG 1.1//EN" "http://www.w3.org/Graphics/SVG/1.1/DTD/svg11.dtd">
<svg version="1.1" id="Layer_1" xmlns="http://www.w3.org/2000/svg" xmlns:xlink="http://www.w3.org/1999/xlink" x="0px" y="0px"
	 width="300px" height="100px" viewBox="0 0 300 100" enable-background="new 0 0 300 100" xml:space="preserve">
<polygon fill="#ED1C24" points="12,82.068 34.792,82.068 129.704,82.068 267.449,82.068 286.764,23.254 31.313,23.254 "/>
<text transform="matrix(1 0 0 1 95.2705 62.6797)" fill="#FFFFFF" font-family="'Roboto-Medium'" font-size="29.778">Click &amp; Drive</text>
<rect x="97.282" y="72.29" fill="#FFFFFF" width="165.833" height="0.634"/>
<polygon fill="#ED1C24" points="288,19.493 105.34,19.493 34.792,19.493 32.55,19.493 31.704,22.067 287.154,22.067 "/>
<g>
	<g>
		<g>
			<path fill="#FFFFFF" d="M66.527,49.354c-1.415,0-2.565,1.149-2.565,2.563c0,1.416,1.15,2.565,2.565,2.565
				c1.414,0,2.565-1.149,2.565-2.565C69.092,50.504,67.941,49.354,66.527,49.354z"/>
		</g>
	</g>
	<g>
		<g>
			<path fill="#FFFFFF" d="M68.226,41.58v4.625c1.316,0.391,2.444,1.228,3.208,2.334l4.398-1.431
				C74.337,44.226,71.54,42.123,68.226,41.58z"/>
		</g>
	</g>
	<g>
		<g>
			<path fill="#FFFFFF" d="M76.886,50.339l-4.4,1.431c0,0.05,0.004,0.1,0.004,0.148c0,1.361-0.46,2.617-1.232,3.624l2.717,3.739
				c1.871-1.896,3.03-4.494,3.03-7.363C77.005,51.382,76.964,50.854,76.886,50.339z"/>
		</g>
	</g>
	<g>
		<g>
			<path fill="#FFFFFF" d="M66.527,29.552H45.858c-0.937,0-1.698,0.761-1.698,1.7c0,0.938,0.761,1.698,1.698,1.698h8.831
				c-1.862,1.167-3.542,2.601-4.985,4.246H38.157c-0.938,0-1.698,0.763-1.698,1.701c0,0.938,0.76,1.699,1.698,1.699h9.09
				c-1.96,3.323-3.087,7.194-3.087,11.323c0,4.808,1.523,9.265,4.113,12.914h-4.819c-0.938,0-1.7,0.761-1.7,1.699
				c0,0.938,0.761,1.698,1.7,1.698h7.785c1.059,0.992,2.215,1.887,3.451,2.658H38.332c-0.938,0-1.698,0.76-1.698,1.698
				s0.76,1.702,1.698,1.702h28.195c12.333,0,22.366-10.034,22.366-22.37C88.893,39.585,78.86,29.552,66.527,29.552z M74.779,63.066
				c-0.032,0.027-0.063,0.055-0.096,0.08c-0.038,0.027-0.077,0.052-0.115,0.074c-2.27,1.622-5.046,2.575-8.041,2.575
				c-2.994,0-5.771-0.953-8.04-2.575c-0.041-0.022-0.079-0.047-0.117-0.074c-0.033-0.025-0.065-0.053-0.096-0.08
				c-3.41-2.529-5.624-6.584-5.624-11.148c0-7.65,6.224-13.875,13.876-13.875c7.65,0,13.875,6.225,13.875,13.875
				C80.402,56.482,78.188,60.537,74.779,63.066z"/>
		</g>
	</g>
	<g>
		<g>
			<path fill="#FFFFFF" d="M57.219,47.108l4.399,1.431c0.765-1.106,1.892-1.943,3.209-2.334V41.58
				C61.513,42.123,58.716,44.226,57.219,47.108z"/>
		</g>
	</g>
	<g>
		<g>
			<path fill="#FFFFFF" d="M68.511,57.54c-0.621,0.221-1.289,0.343-1.984,0.343c-0.696,0-1.363-0.122-1.984-0.343l-2.718,3.741
				c1.416,0.714,3.012,1.118,4.703,1.118c1.69,0,3.288-0.404,4.702-1.118L68.511,57.54z"/>
		</g>
	</g>
	<g>
		<g>
			<path fill="#FFFFFF" d="M60.564,51.918c0-0.049,0.002-0.099,0.003-0.148l-4.401-1.431c-0.079,0.515-0.118,1.043-0.118,1.579
				c0,2.869,1.157,5.468,3.028,7.365l2.717-3.741C61.024,54.535,60.564,53.279,60.564,51.918z"/>
		</g>
	</g>
</g>
</svg>
