<?xml version="1.0" encoding="utf-8"?>
<!-- Generator: Adobe Illustrator 16.0.0, SVG Export Plug-In . SVG Version: 6.00 Build 0)  -->
<!DOCTYPE svg PUBLIC "-//W3C//DTD SVG 1.1//EN" "http://www.w3.org/Graphics/SVG/1.1/DTD/svg11.dtd">
<svg version="1.1" id="Layer_1" xmlns="http://www.w3.org/2000/svg" xmlns:xlink="http://www.w3.org/1999/xlink" x="0px" y="0px"
	 width="200px" height="70px" viewBox="0 0 200 70" enable-background="new 0 0 200 70" xml:space="preserve">
<polygon fill="#ED1C24" points="6.429,55.675 21.863,55.675 86.136,55.675 179.417,55.675 192.495,15.847 19.508,15.847 "/>
<text transform="matrix(1 0 0 1 62.8184 42.5449)" fill="#FFFFFF" font-family="'Roboto-Medium'" font-size="20.1653">Click &amp; Drive</text>
<rect x="64.181" y="49.053" fill="#FFFFFF" width="112.299" height="0.43"/>
<polygon fill="#ED1C24" points="193.333,13.299 69.638,13.299 21.863,13.299 20.345,13.299 19.772,15.043 192.762,15.043 "/>
<g>
	<g>
		<g>
			<path fill="#FFFFFF" d="M43.354,33.521c-0.958,0-1.737,0.779-1.737,1.737c0,0.959,0.779,1.736,1.737,1.736
				c0.957,0,1.736-0.777,1.736-1.736C45.091,34.3,44.312,33.521,43.354,33.521z"/>
		</g>
	</g>
	<g>
		<g>
			<path fill="#FFFFFF" d="M44.504,28.256v3.132c0.892,0.265,1.655,0.832,2.173,1.581L49.657,32
				C48.643,30.049,46.75,28.624,44.504,28.256z"/>
		</g>
	</g>
	<g>
		<g>
			<path fill="#FFFFFF" d="M50.369,34.188l-2.979,0.968c0,0.035,0.002,0.068,0.002,0.102c0,0.922-0.312,1.771-0.834,2.453
				l1.84,2.533c1.268-1.284,2.052-3.043,2.052-4.986C50.45,34.894,50.422,34.537,50.369,34.188z"/>
		</g>
	</g>
	<g>
		<g>
			<path fill="#FFFFFF" d="M43.354,20.111H29.357c-0.634,0-1.15,0.515-1.15,1.151c0,0.636,0.516,1.15,1.15,1.15h5.98
				c-1.261,0.79-2.399,1.76-3.375,2.875h-7.82c-0.635,0-1.15,0.517-1.15,1.151c0,0.636,0.515,1.151,1.15,1.151h6.156
				c-1.328,2.25-2.091,4.871-2.091,7.668c0,3.255,1.031,6.273,2.785,8.744h-3.263c-0.636,0-1.151,0.516-1.151,1.151
				c0,0.635,0.515,1.15,1.151,1.15h5.271c0.717,0.671,1.5,1.277,2.337,1.799H24.26c-0.635,0-1.149,0.516-1.149,1.15
				c0,0.636,0.515,1.153,1.149,1.153h19.094c8.352,0,15.146-6.795,15.146-15.148C58.5,26.905,51.707,20.111,43.354,20.111z
				 M48.942,42.807c-0.021,0.02-0.042,0.037-0.065,0.055c-0.025,0.019-0.051,0.035-0.078,0.05c-1.537,1.099-3.417,1.744-5.444,1.744
				c-2.028,0-3.908-0.646-5.445-1.744c-0.027-0.015-0.053-0.031-0.08-0.05c-0.022-0.018-0.044-0.035-0.065-0.055
				c-2.308-1.713-3.808-4.458-3.808-7.549c0-5.182,4.215-9.397,9.397-9.397c5.181,0,9.396,4.216,9.396,9.397
				C52.75,38.349,51.251,41.094,48.942,42.807z"/>
		</g>
	</g>
	<g>
		<g>
			<path fill="#FFFFFF" d="M37.051,32l2.979,0.97c0.517-0.749,1.281-1.316,2.172-1.581v-3.132
				C39.958,28.624,38.065,30.049,37.051,32z"/>
		</g>
	</g>
	<g>
		<g>
			<path fill="#FFFFFF" d="M44.697,39.064c-0.42,0.149-0.872,0.232-1.343,0.232c-0.472,0-0.923-0.083-1.344-0.232l-1.841,2.533
				c0.959,0.483,2.04,0.757,3.186,0.757c1.145,0,2.226-0.273,3.184-0.757L44.697,39.064z"/>
		</g>
	</g>
	<g>
		<g>
			<path fill="#FFFFFF" d="M39.316,35.258c0-0.033,0.002-0.066,0.003-0.102l-2.981-0.968c-0.053,0.349-0.08,0.706-0.08,1.07
				c0,1.943,0.784,3.702,2.05,4.987l1.84-2.534C39.627,37.029,39.316,36.18,39.316,35.258z"/>
		</g>
	</g>
</g>
</svg>
